<svg enable-background="new 0 0 64 64" height="64" viewBox="0 0 64 64" width="64" xmlns="http://www.w3.org/2000/svg" xmlns:xlink="http://www.w3.org/1999/xlink"><linearGradient id="a"><stop offset="0" stop-color="#91d443"/><stop offset="1" stop-color="#48bfe0"/></linearGradient><linearGradient id="b" gradientTransform="matrix(1 0 0 -1 0 65.094)" gradientUnits="userSpaceOnUse" x1="9.6501" x2="55.733" xlink:href="#a" y1="55.4537" y2="9.3708"/><linearGradient id="c" gradientTransform="matrix(1 0 0 -1 0 65.094)" gradientUnits="userSpaceOnUse" x1="21.1064" x2="67.1893" xlink:href="#a" y1="66.91" y2="20.827"/><linearGradient id="d" gradientTransform="matrix(1 0 0 -1 0 65.094)" gradientUnits="userSpaceOnUse" x1="32.529" x2="78.6119" xlink:href="#a" y1="78.3326" y2="32.2497"/><linearGradient id="e" gradientTransform="matrix(1 0 0 -1 0 65.094)" gradientUnits="userSpaceOnUse" x1="-1.8193" x2="44.2636" xlink:href="#a" y1="43.9892" y2="-2.0937"/><linearGradient id="f" gradientTransform="matrix(1 0 0 -1 0 65.094)" gradientUnits="userSpaceOnUse" x1="-13.2407" x2="32.8422" xlink:href="#a" y1="32.5678" y2="-13.5152"/><path d="m45.8 55.9c0 4.5 3.6 8.1 8.1 8.1h10v-10c0-4.5-3.6-8.1-8.1-8.1h-1.8c-7.1 0-12.9-5.8-12.9-12.9v-2c0-4.5-3.6-8.1-8.1-8.1h-2c-7.1 0-12.9-5.8-12.9-12.9v-1.9c.1-4.5-3.6-8.1-8.1-8.1h-10v10c0 4.5 3.6 8.1 8.1 8.1h1.9c7.1 0 12.9 5.8 12.9 12.9v1.9c0 4.5 3.6 8.1 8.1 8.1h2c7.1 0 12.9 5.8 12.9 12.9v2z" fill="#48bfe0"/><path d="m64 31c0-4.5-3.6-8.1-8.1-8.1h-1.9c-7.1 0-12.9-5.8-12.9-12.9v-1.9c-.1-4.5-3.7-8.1-8.2-8.1h-10v10.1c.1 4.4 3.7 8 8.1 8h2c7.1 0 12.9 5.8 12.9 12.9v1.9c0 4.5 3.6 8.1 8.1 8.1h10z" fill="#48bfe0"/><path d="m64 8.1c0-4.3-3.5-7.9-7.8-8.1h-10.5v10.1c.1 4.4 3.7 8 8.1 8h10.2z" fill="#48bfe0"/><path d="m0 33c0 4.5 3.6 8.1 8.1 8.1h1.9c7.1 0 12.9 5.8 12.9 12.9v1.9c0 4.5 3.6 8.1 8.1 8.1h10v-10.1c-.1-4.4-3.7-8-8.1-8h-1.9c-7.1 0-12.9-5.8-12.9-12.9v-1.9c0-4.5-3.6-8.1-8.1-8.1h-10z" fill="#48bfe0"/><path d="m0 55.9c0 4.3 3.5 7.9 7.8 8.1h10.5v-10.1c-.1-4.4-3.7-8-8.1-8h-10.2z" fill="#48bfe0"/></svg>